<svg width="45" height="45" viewBox="0 0 45 45" fill="none" xmlns="http://www.w3.org/2000/svg">
<rect width="45" height="45" rx="22.5" fill="#F3F0EC"/>
<path d="M13.3061 20.6183C13.1407 18.3029 14.9745 16.3333 17.2959 16.3333H28.5485C30.9263 16.3333 32.7791 18.3952 32.5258 20.7595L31.2401 32.7595C31.0223 34.792 29.307 36.3333 27.2628 36.3333H18.1531C16.0545 36.3333 14.3127 34.7115 14.1632 32.6183L13.3061 20.6183Z" fill="#AD9898"/>
<path d="M13.7284 12.9506C13.3634 14.2282 14.3227 15.5 15.6515 15.5H29.9669C31.4028 15.5 32.3708 14.0319 31.8052 12.7122L31.3766 11.7122C31.0615 10.9768 30.3384 10.5 29.5384 10.5H15.9372C15.0442 10.5 14.2594 11.092 14.0141 11.9506L13.7284 12.9506Z" fill="#AD9898"/>
<circle cx="23" cy="10.5" r="1.5" stroke="#AD9898" stroke-width="2"/>
<rect x="22.1667" y="20.5" width="1.66667" height="12.5" rx="0.833333" fill="#F3F0EC"/>
<rect x="26.3333" y="20.5" width="1.66667" height="12.5" rx="0.833333" fill="#F3F0EC"/>
<rect x="18" y="20.5" width="1.66667" height="12.5" rx="0.833333" fill="#F3F0EC"/>
</svg>
